<svg width="330" height="370" viewBox="0 0 330 370" fill="none" xmlns="http://www.w3.org/2000/svg">
<path d="M74.9146 181.065C75.7188 175.824 80.6155 172.228 85.8512 173.032C91.0872 173.837 94.6797 178.739 93.8756 183.981L69.2017 344.818L217.254 225.657L174.986 201.229C170.399 198.577 168.827 192.705 171.475 188.112C174.124 183.52 179.99 181.947 184.578 184.598L228.578 210.027C239.422 216.295 240.593 231.513 230.835 239.367L78.4742 361.994L77.8746 362.455C65.4325 371.701 47.8457 361.553 49.6041 346.142L49.7027 345.391L74.9146 181.065ZM279.109 104.096C279.444 101.912 282.342 101.369 283.446 103.282L322.664 171.275C326.093 177.221 326.093 184.548 322.664 190.493L250.953 314.824C247.523 320.77 241.184 324.433 234.326 324.433H155.526C153.32 324.432 152.342 321.656 154.06 320.273L169.558 307.799C171.636 306.127 174.223 305.216 176.889 305.216H234.326L306.037 180.885L277.512 131.43C276.185 129.128 275.682 126.442 276.085 123.816L279.109 104.096ZM169.709 37.336C171.915 37.336 172.894 40.1123 171.175 41.4962L155.677 53.9698C153.6 55.6416 151.013 56.5538 148.346 56.5538H90.9068L19.1959 180.885L47.7193 230.339C49.0471 232.641 49.5511 235.327 49.148 237.954L46.1236 257.67C45.7883 259.854 42.8897 260.398 41.7857 258.484L2.57185 190.493C-0.857312 184.548 -0.857258 177.221 2.57185 171.275L74.2799 46.9454C77.6021 41.1853 83.6555 37.5671 90.2662 37.3468L90.9068 37.336H169.709ZM247.358 3.53037C259.8 -5.71584 277.387 4.43261 275.628 19.8438L275.53 20.5948L250.319 184.921C249.515 190.162 244.617 193.758 239.381 192.953C234.146 192.148 230.553 187.246 231.357 182.005L256.031 21.1671L107.978 140.328L150.247 164.757C154.834 167.408 156.406 173.281 153.757 177.873C151.109 182.465 145.242 184.039 140.655 181.388L96.6558 155.958C85.8111 149.69 84.6399 134.473 94.399 126.618L246.758 3.9913L247.358 3.53037Z" fill="#D1D4E3"/>
</svg>
